<svg width="128" height="128" viewBox="0 0 128 128" fill="none" xmlns="http://www.w3.org/2000/svg">
<path d="M24.3069 55.4401L40.3083 53.0515L57.1302 55.4401L60.9128 60.3258L61.89 70.8572L55.6942 101.366L42.052 104.297L28.4098 101.366L22.1528 69.4458L24.3069 55.4401Z" fill="url(#paint0_linear_2730_277)"/>
<path d="M37.6786 51.1189C30.6649 51.4446 25.8009 53.0298 23.1951 55.8092C20.8717 58.3063 20.2203 60.4778 20.0466 66.1886C19.8077 73.5715 20.4374 77.3281 23.1083 84.7326C24.9106 89.7052 25.2797 91.0732 25.8443 94.8298C26.5826 99.6721 27.2774 101.387 29.2751 103.255C30.5129 104.427 31.4683 104.949 33.4877 105.557C37.3746 106.773 46.4511 106.773 50.338 105.557C52.3574 104.949 53.3129 104.427 54.5506 103.255C56.5483 101.387 57.2431 99.6721 57.9814 94.8298C58.546 91.0732 58.9151 89.7052 60.7174 84.7326C63.3883 77.3281 64.018 73.5715 63.7791 66.1886C63.6054 60.4778 62.954 58.3063 60.6306 55.8092C57.1563 52.0961 49.4911 50.5326 37.6786 51.1189ZM48.4706 54.5932C54.3769 55.2229 57.938 56.9166 59.3929 59.7829C60.2614 61.4983 60.4569 63.0401 60.4569 68.0343C60.4569 74.7223 60.0443 76.8503 57.5471 83.6903C55.9403 88.0766 55.202 90.8778 54.5289 95.2206C53.7037 100.389 52.4877 101.8 48.0363 102.712C45.6911 103.211 38.1346 103.211 35.7894 102.712C31.338 101.8 30.122 100.389 29.2969 95.2206C28.6237 90.8778 27.8854 88.0766 26.2786 83.6903C23.7814 76.8503 23.3689 74.7223 23.3689 68.0343C23.3689 61.7589 23.8031 59.9566 25.7791 57.9589C27.3643 56.3521 30.9689 55.0709 35.1814 54.5932C37.6351 54.3109 45.93 54.3109 48.4706 54.5932Z" fill="black"/>
<path d="M32.1083 24.1359H50.674L57.4054 28.3702L58.4912 34.8844L59.794 44.3302L57.4054 53.0159L53.8226 59.2044L48.7197 62.0273L41.6626 63.0044L36.3426 61.2673L31.4569 59.5302L27.874 54.4273L24.5083 39.4444L26.5712 31.4102L32.1083 24.1359Z" fill="url(#paint1_linear_2730_277)"/>
<path d="M36.9942 22.2902C30.393 23.3325 25.7462 26.785 23.6399 32.2136C22.5107 35.1016 22.2719 36.9473 22.4022 41.4856C22.5325 46.4365 23.1405 49.433 24.921 53.993C26.3759 57.7496 29.2639 61.5713 31.6525 62.8742C34.5405 64.4376 37.1462 64.9587 42.097 64.9587C46.1142 64.9587 47.7427 64.7416 50.1965 63.8947C52.3027 63.1565 53.5622 62.353 55.1256 60.7027C57.9702 57.6845 59.8159 53.7325 61.2273 47.4787C61.8787 44.6342 62.0525 38.1416 61.5313 35.6227C59.9896 27.9142 54.8433 23.3107 46.5919 22.2033C44.3336 21.8993 39.1656 21.9427 36.9942 22.2902ZM48.2856 25.8513C53.4536 27.1976 56.7107 30.2593 58.057 35.1016C58.2959 35.9267 58.4696 37.5987 58.5347 39.6616C58.6216 42.3542 58.5565 43.3965 58.1873 45.6113C57.6227 48.9336 56.2547 53.1245 55.017 55.2742C53.1279 58.5965 51.5645 59.9645 48.5027 60.985C46.8307 61.5713 46.5919 61.5713 42.097 61.5713C37.6022 61.5713 37.3633 61.5713 35.6913 60.985C32.6296 59.9645 31.0662 58.5965 29.177 55.2742C27.9393 53.1245 26.5713 48.9336 26.0067 45.6113C25.6376 43.3965 25.5725 42.3542 25.6593 39.6616C25.7245 37.5987 25.8982 35.9267 26.137 35.1016C27.657 29.6513 31.761 26.3073 37.993 25.4387C40.4033 25.113 46.2879 25.3519 48.2856 25.8513Z" fill="black"/>
<path d="M68.3069 54.4401L84.3083 52.0515L101.13 54.4401L104.913 59.3258L105.89 69.8572L99.6942 100.366L86.052 103.297L72.4098 100.366L66.1528 68.4458L68.3069 54.4401Z" fill="url(#paint2_linear_2730_277)"/>
<path d="M81.6786 50.1189C74.6649 50.4446 69.8009 52.0298 67.1951 54.8092C64.8717 57.3063 64.2203 59.4778 64.0466 65.1886C63.8077 72.5715 64.4374 76.3281 67.1083 83.7326C68.9106 88.7052 69.2797 90.0732 69.8443 93.8298C70.5826 98.6721 71.2774 100.387 73.2751 102.255C74.5129 103.427 75.4683 103.949 77.4877 104.557C81.3746 105.773 90.4511 105.773 94.338 104.557C96.3574 103.949 97.3129 103.427 98.5506 102.255C100.548 100.387 101.243 98.6721 101.981 93.8298C102.546 90.0732 102.915 88.7052 104.717 83.7326C107.388 76.3281 108.018 72.5715 107.779 65.1886C107.605 59.4778 106.954 57.3063 104.631 54.8092C101.156 51.0961 93.4911 49.5326 81.6786 50.1189ZM92.4706 53.5932C98.3769 54.2229 101.938 55.9166 103.393 58.7829C104.261 60.4983 104.457 62.0401 104.457 67.0343C104.457 73.7223 104.044 75.8503 101.547 82.6903C99.9403 87.0766 99.202 89.8778 98.5289 94.2206C97.7037 99.3886 96.4877 100.8 92.0363 101.712C89.6911 102.211 82.1346 102.211 79.7894 101.712C75.338 100.8 74.122 99.3886 73.2969 94.2206C72.6237 89.8778 71.8854 87.0766 70.2786 82.6903C67.7814 75.8503 67.3689 73.7223 67.3689 67.0343C67.3689 60.7589 67.8031 58.9566 69.7791 56.9589C71.3643 55.3521 74.9689 54.0709 79.1814 53.5932C81.6351 53.3109 89.93 53.3109 92.4706 53.5932Z" fill="black"/>
<path d="M76.1083 23.1359H94.674L101.405 27.3702L102.491 33.8844L103.794 43.3302L101.405 52.0159L97.8226 58.2044L92.7197 61.0273L85.6626 62.0044L80.3426 60.2673L75.4569 58.5302L71.874 53.4273L68.5083 38.4444L70.5712 30.4102L76.1083 23.1359Z" fill="url(#paint3_linear_2730_277)"/>
<path d="M80.9937 21.2902C74.3925 22.3325 69.7457 25.785 67.6394 31.2136C66.5103 34.1016 66.2714 35.9473 66.4017 40.4856C66.532 45.4365 67.14 48.433 68.9205 52.993C70.3754 56.7496 73.2634 60.5713 75.652 61.8742C78.54 63.4376 81.1457 63.9587 86.0965 63.9587C90.1137 63.9587 91.7423 63.7416 94.196 62.8947C96.3023 62.1565 97.5617 61.353 99.1251 59.7027C101.97 56.6845 103.815 52.7325 105.227 46.4787C105.878 43.6342 106.052 37.1416 105.531 34.6227C103.989 26.9142 98.8428 22.3107 90.5914 21.2033C88.3331 20.8993 83.1651 20.9427 80.9937 21.2902ZM92.2851 24.8513C97.4531 26.1976 100.71 29.2593 102.057 34.1016C102.295 34.9267 102.469 36.5987 102.534 38.6616C102.621 41.3542 102.556 42.3965 102.187 44.6113C101.622 47.9336 100.254 52.1245 99.0165 54.2742C97.1274 57.5965 95.564 58.9645 92.5023 59.985C90.8303 60.5713 90.5914 60.5713 86.0965 60.5713C81.6017 60.5713 81.3628 60.5713 79.6908 59.985C76.6291 58.9645 75.0657 57.5965 73.1765 54.2742C71.9388 52.1245 70.5708 47.9336 70.0063 44.6113C69.6371 42.3965 69.572 41.3542 69.6588 38.6616C69.724 36.5987 69.8977 34.9267 70.1365 34.1016C71.6565 28.6513 75.7605 25.3073 81.9925 24.4387C84.4028 24.113 90.2874 24.3519 92.2851 24.8513Z" fill="black"/>
<path d="M46.3069 66.4401L62.3083 64.0515L79.1302 66.4401L82.9128 71.3258L83.89 81.8572L77.6942 112.366L64.052 115.297L50.4098 112.366L44.1528 80.4458L46.3069 66.4401Z" fill="url(#paint4_linear_2730_277)"/>
<path d="M59.6786 62.1189C52.6649 62.4446 47.8009 64.0298 45.1951 66.8092C42.8717 69.3063 42.2203 71.4778 42.0466 77.1886C41.8077 84.5715 42.4374 88.3281 45.1083 95.7326C46.9106 100.705 47.2797 102.073 47.8443 105.83C48.5826 110.672 49.2774 112.387 51.2751 114.255C52.5129 115.427 53.4683 115.949 55.4877 116.557C59.3746 117.773 68.4511 117.773 72.338 116.557C74.3574 115.949 75.3129 115.427 76.5506 114.255C78.5483 112.387 79.2431 110.672 79.9814 105.83C80.546 102.073 80.9151 100.705 82.7174 95.7326C85.3883 88.3281 86.018 84.5715 85.7791 77.1886C85.6054 71.4778 84.954 69.3063 82.6306 66.8092C79.1563 63.0961 71.4911 61.5326 59.6786 62.1189ZM70.4706 65.5932C76.3769 66.2229 79.938 67.9166 81.3929 70.7829C82.2614 72.4983 82.4569 74.0401 82.4569 79.0343C82.4569 85.7223 82.0443 87.8503 79.5471 94.6903C77.9403 99.0766 77.202 101.878 76.5289 106.221C75.7037 111.389 74.4877 112.8 70.0363 113.712C67.6911 114.211 60.1346 114.211 57.7894 113.712C53.338 112.8 52.122 111.389 51.2969 106.221C50.6237 101.878 49.8854 99.0766 48.2786 94.6903C45.7814 87.8503 45.3689 85.7223 45.3689 79.0343C45.3689 72.7589 45.8031 70.9566 47.7791 68.9589C49.3643 67.3521 52.9689 66.0709 57.1814 65.5932C59.6351 65.3109 67.93 65.3109 70.4706 65.5932Z" fill="black"/>
<path d="M54.1083 35.1359H72.674L79.4054 39.3702L80.4912 45.8844L81.794 55.3302L79.4054 64.0159L75.8226 70.2044L70.7197 73.0273L63.6626 74.0044L58.3426 72.2673L53.4569 70.5302L49.874 65.4273L46.5083 50.4444L48.5712 42.4102L54.1083 35.1359Z" fill="url(#paint5_linear_2730_277)"/>
<path d="M58.9937 33.2902C52.3925 34.3325 47.7457 37.785 45.6394 43.2136C44.5103 46.1016 44.2714 47.9473 44.4017 52.4856C44.532 57.4365 45.14 60.433 46.9205 64.993C48.3754 68.7496 51.2634 72.5713 53.652 73.8742C56.54 75.4376 59.1457 75.9587 64.0965 75.9587C68.1137 75.9587 69.7423 75.7416 72.196 74.8947C74.3023 74.1565 75.5617 73.353 77.1251 71.7027C79.9697 68.6845 81.8154 64.7325 83.2268 58.4787C83.8783 55.6342 84.052 49.1416 83.5308 46.6227C81.9891 38.9142 76.8428 34.3107 68.5914 33.2033C66.3331 32.8993 61.1651 32.9427 58.9937 33.2902ZM70.2851 36.8513C75.4531 38.1976 78.7103 41.2593 80.0565 46.1016C80.2954 46.9267 80.4691 48.5987 80.5343 50.6616C80.6211 53.3542 80.556 54.3965 80.1868 56.6113C79.6223 59.9336 78.2543 64.1245 77.0165 66.2742C75.1274 69.5965 73.564 70.9645 70.5023 71.985C68.8303 72.5713 68.5914 72.5713 64.0965 72.5713C59.6017 72.5713 59.3628 72.5713 57.6908 71.985C54.6291 70.9645 53.0657 69.5965 51.1765 66.2742C49.9388 64.1245 48.5708 59.9336 48.0063 56.6113C47.6371 54.3965 47.572 53.3542 47.6588 50.6616C47.724 48.5987 47.8977 46.9267 48.1365 46.1016C49.6565 40.6513 53.7605 37.3073 59.9925 36.4387C62.4028 36.113 68.2874 36.3519 70.2851 36.8513Z" fill="black"/>
<defs>
<linearGradient id="paint0_linear_2730_277" x1="42.0214" y1="53.0515" x2="42.0214" y2="104.297" gradientUnits="userSpaceOnUse">
<stop stop-color="#C22ECB"/>
<stop offset="0.526042" stop-color="#47A17F"/>
<stop offset="0.807292" stop-color="#A5BA53"/>
<stop offset="0.9999" stop-color="#A5BA53"/>
</linearGradient>
<linearGradient id="paint1_linear_2730_277" x1="42.1512" y1="24.1359" x2="42.1512" y2="63.0044" gradientUnits="userSpaceOnUse">
<stop stop-color="#C22ECB"/>
<stop offset="0.526042" stop-color="#47A17F"/>
<stop offset="0.807292" stop-color="#A5BA53"/>
<stop offset="0.9999" stop-color="#A5BA53"/>
</linearGradient>
<linearGradient id="paint2_linear_2730_277" x1="86.0214" y1="52.0515" x2="86.0214" y2="103.297" gradientUnits="userSpaceOnUse">
<stop stop-color="#C12E32"/>
<stop offset="0.5" stop-color="#5E8293"/>
<stop offset="0.802083" stop-color="#5851B9"/>
</linearGradient>
<linearGradient id="paint3_linear_2730_277" x1="86.1512" y1="23.1359" x2="86.1512" y2="62.0044" gradientUnits="userSpaceOnUse">
<stop stop-color="#C12E32"/>
<stop offset="0.5" stop-color="#5E8293"/>
<stop offset="0.802083" stop-color="#5851B9"/>
</linearGradient>
<linearGradient id="paint4_linear_2730_277" x1="64.0214" y1="64.0515" x2="64.0214" y2="115.297" gradientUnits="userSpaceOnUse">
<stop stop-color="#38CB27"/>
<stop offset="0.526042" stop-color="#829848"/>
<stop offset="1" stop-color="#B25347"/>
</linearGradient>
<linearGradient id="paint5_linear_2730_277" x1="64.1512" y1="35.1359" x2="64.1512" y2="74.0044" gradientUnits="userSpaceOnUse">
<stop stop-color="#38CB27"/>
<stop offset="0.526042" stop-color="#829848"/>
<stop offset="1" stop-color="#B25347"/>
</linearGradient>
</defs>
</svg>